<svg version="1.2" xmlns="http://www.w3.org/2000/svg" viewBox="0 0 216 216" width="216" height="216">
	<title>XML文件图标</title>
	<style>
		tspan { white-space:pre } 
		.s0 { fill: #ffffff } 
		.s1 { fill: #dbdbdb } 
		.s2 { fill: #65b344 } 
	</style>
	<path id="矩形 1" class="s0" d="m56 7h79.2l51.8 51.9v133.1c0 9.4-7.6 17-17 17h-114c-9.4 0-17-7.6-17-17v-168c0-9.4 7.6-17 17-17z"/>
	<path id="矩形 1 拷贝" class="s1" d="m135 7l52 52h-40c-6.6 0-12-5.4-12-12z"/>
	<path id="矩形 2" class="s2" d="m25 99h131c5 0 9 4 9 9v59c0 5-4 9-9 9h-131c-5 0-9-4-9-9v-59c0-5 4-9 9-9z"/>
	<path id="XML" fill-rule="evenodd" class="s0" d="m53.2 132.3l8.4-11.6q0.6-0.9 1.7-1.4 1.1-0.4 2.3-0.4h0.5q0.8 0 1.4 0.5 0.6 0.5 0.5 1.3 0 0.9-0.7 1.8l-10.6 14.7 11.5 15.9q0.6 0.9 0.6 1.8-0.1 0.8-0.7 1.3-0.6 0.5-1.5 0.5h-0.5q-1.2 0-2.1-0.4-0.9-0.4-1.6-1.5l-9.2-12.8-9.2 12.8q-0.6 1.1-1.5 1.5-0.9 0.4-2.1 0.4h-0.4q-1 0-1.6-0.5-0.6-0.5-0.7-1.3 0-0.9 0.6-1.8l11.5-15.9-10.6-14.7q-0.7-0.9-0.7-1.8-0.1-0.8 0.5-1.3 0.5-0.5 1.4-0.5h0.5q1.2 0 2.3 0.4 1.1 0.5 1.7 1.4zm-3.5 4.9l3.5 4.8 3.5-4.8-3.5-4.9zm63.8 16.8q0 1.4-0.7 2.1-0.7 0.7-2 0.7h-0.3q-1.3 0-2-0.7-0.8-0.7-0.8-2.1v-22.4l-11.5 23.4q-0.4 0.9-1.1 1.4-0.7 0.4-1.7 0.4h-0.3q-1 0-1.7-0.4-0.7-0.5-1.1-1.4l-11.5-23.4v22.4q0 1.4-0.7 2.1-0.7 0.7-2 0.7h-0.3q-1.3 0-2-0.7-0.8-0.7-0.8-2.1v-32.3q0-1.4 0.7-2.1 0.7-0.7 1.9-0.7h0.5q2.4 0 3.3 2l13.9 28.3 13.8-28.3q1-2 3.3-2h0.4q1.3 0 2 0.7 0.7 0.7 0.7 2.1zm12.2-2.8h14.1q1.4 0 2 0.6 0.7 0.7 0.7 2v0.3q0 1.3-0.7 1.9-0.6 0.7-2 0.7h-14.9v-5.5h0.8v5.5h-1.3q-2.1 0-3.3-1.1-1.1-1.2-1.1-3.3v-30.7q0-1.3 0.7-2 0.7-0.7 2-0.7h0.3q1.3 0 2 0.7 0.7 0.7 0.7 2z"/>
</svg>